<svg width="36" height="39" viewBox="0 0 36 39" fill="none" xmlns="http://www.w3.org/2000/svg">
<path d="M22.9094 11.0215L22.1645 11.1088L22.9094 11.0215ZM23.4405 15.5525L24.1854 15.4652V15.4652L23.4405 15.5525ZM7.55952 15.5525L6.81461 15.4652L7.55952 15.5525ZM8.09055 11.0215L8.83545 11.1088L8.09055 11.0215ZM6.53175 17.8029L5.96843 17.3078H5.96843L6.53175 17.8029ZM24.4683 17.8029L23.9049 18.2981L24.4683 17.8029ZM18.1956 5.72971H17.4456C17.4456 6.05297 17.6527 6.33986 17.9595 6.4416L18.1956 5.72971ZM12.8044 5.72971L13.0405 6.4416C13.3473 6.33986 13.5544 6.05297 13.5544 5.72971H12.8044ZM19.7619 23.9707C19.9114 23.5844 19.7195 23.15 19.3332 23.0005C18.9469 22.8511 18.5125 23.043 18.363 23.4293L19.7619 23.9707ZM12.6369 23.4293C12.4875 23.043 12.0531 22.8511 11.6668 23.0005C11.2805 23.15 11.0886 23.5844 11.238 23.9707L12.6369 23.4293ZM22.3604 20.65H8.63959V22.15H22.3604V20.65ZM22.1645 11.1088L22.6956 15.6398L24.1854 15.4652L23.6543 10.9342L22.1645 11.1088ZM8.30442 15.6398L8.83545 11.1088L7.34565 10.9342L6.81461 15.4652L8.30442 15.6398ZM7.09506 18.2981C7.7656 17.5352 8.18991 16.6169 8.30442 15.6398L6.81461 15.4652C6.73784 16.1203 6.45132 16.7584 5.96843 17.3078L7.09506 18.2981ZM22.6956 15.6398C22.8101 16.6169 23.2344 17.5352 23.9049 18.2981L25.0316 17.3078C24.5487 16.7584 24.2622 16.1203 24.1854 15.4652L22.6956 15.6398ZM8.63959 20.65C7.80151 20.65 7.20465 20.2467 6.93003 19.7781C6.66609 19.3276 6.66879 18.7831 7.09506 18.2981L5.96843 17.3078C5.09198 18.3049 5.063 19.5588 5.63586 20.5364C6.19805 21.4958 7.30647 22.15 8.63959 22.15V20.65ZM22.3604 22.15C23.6935 22.15 24.8019 21.4958 25.3641 20.5364C25.937 19.5588 25.908 18.3049 25.0316 17.3078L23.9049 18.2981C24.3312 18.7831 24.3339 19.3276 24.07 19.7781C23.7954 20.2467 23.1985 20.65 22.3604 20.65V22.15ZM18.9456 5.72971V5.61044H17.4456V5.72971H18.9456ZM23.6543 10.9342C23.3273 8.14346 21.192 5.93311 18.4316 5.01782L17.9595 6.4416C20.2873 7.21343 21.9189 9.013 22.1645 11.1088L23.6543 10.9342ZM13.5544 5.72971V5.61044H12.0544V5.72971H13.5544ZM8.83545 11.1088C9.08107 9.013 10.7127 7.21343 13.0405 6.4416L12.5684 5.01782C9.80798 5.93311 7.67272 8.14346 7.34565 10.9342L8.83545 11.1088ZM15.5 3.75C16.5974 3.75 17.4456 4.60545 17.4456 5.61044H18.9456C18.9456 3.73202 17.3801 2.25 15.5 2.25V3.75ZM15.5 2.25C13.6199 2.25 12.0544 3.73202 12.0544 5.61044H13.5544C13.5544 4.60545 14.4026 3.75 15.5 3.75V2.25ZM18.363 23.4293C17.9647 24.4587 16.8589 25.25 15.5 25.25V26.75C17.4305 26.75 19.1232 25.6212 19.7619 23.9707L18.363 23.4293ZM15.5 25.25C14.1411 25.25 13.0353 24.4587 12.6369 23.4293L11.238 23.9707C11.8768 25.6212 13.5695 26.75 15.5 26.75V25.25Z" fill="#0A4D68"/>
<path d="M22.9094 11.0215L22.1645 11.1088L22.9094 11.0215ZM23.4405 15.5525L24.1854 15.4652V15.4652L23.4405 15.5525ZM7.55952 15.5525L6.81461 15.4652L7.55952 15.5525ZM8.09055 11.0215L8.83545 11.1088L8.09055 11.0215ZM6.53175 17.8029L5.96843 17.3078H5.96843L6.53175 17.8029ZM24.4683 17.8029L23.9049 18.2981L24.4683 17.8029ZM18.1956 5.72971H17.4456C17.4456 6.05297 17.6527 6.33986 17.9595 6.4416L18.1956 5.72971ZM12.8044 5.72971L13.0405 6.4416C13.3473 6.33986 13.5544 6.05297 13.5544 5.72971H12.8044ZM19.7619 23.9707C19.9114 23.5844 19.7195 23.15 19.3332 23.0005C18.9469 22.8511 18.5125 23.043 18.363 23.4293L19.7619 23.9707ZM12.6369 23.4293C12.4875 23.043 12.0531 22.8511 11.6668 23.0005C11.2805 23.15 11.0886 23.5844 11.238 23.9707L12.6369 23.4293ZM22.3604 20.65H8.63959V22.15H22.3604V20.65ZM22.1645 11.1088L22.6956 15.6398L24.1854 15.4652L23.6543 10.9342L22.1645 11.1088ZM8.30442 15.6398L8.83545 11.1088L7.34565 10.9342L6.81461 15.4652L8.30442 15.6398ZM7.09506 18.2981C7.7656 17.5352 8.18991 16.6169 8.30442 15.6398L6.81461 15.4652C6.73784 16.1203 6.45132 16.7584 5.96843 17.3078L7.09506 18.2981ZM22.6956 15.6398C22.8101 16.6169 23.2344 17.5352 23.9049 18.2981L25.0316 17.3078C24.5487 16.7584 24.2622 16.1203 24.1854 15.4652L22.6956 15.6398ZM8.63959 20.65C7.80151 20.65 7.20465 20.2467 6.93003 19.7781C6.66609 19.3276 6.66879 18.7831 7.09506 18.2981L5.96843 17.3078C5.09198 18.3049 5.063 19.5588 5.63586 20.5364C6.19805 21.4958 7.30647 22.15 8.63959 22.15V20.65ZM22.3604 22.15C23.6935 22.15 24.8019 21.4958 25.3641 20.5364C25.937 19.5588 25.908 18.3049 25.0316 17.3078L23.9049 18.2981C24.3312 18.7831 24.3339 19.3276 24.07 19.7781C23.7954 20.2467 23.1985 20.65 22.3604 20.65V22.15ZM18.9456 5.72971V5.61044H17.4456V5.72971H18.9456ZM23.6543 10.9342C23.3273 8.14346 21.192 5.93311 18.4316 5.01782L17.9595 6.4416C20.2873 7.21343 21.9189 9.013 22.1645 11.1088L23.6543 10.9342ZM13.5544 5.72971V5.61044H12.0544V5.72971H13.5544ZM8.83545 11.1088C9.08107 9.013 10.7127 7.21343 13.0405 6.4416L12.5684 5.01782C9.80798 5.93311 7.67272 8.14346 7.34565 10.9342L8.83545 11.1088ZM15.5 3.75C16.5974 3.75 17.4456 4.60545 17.4456 5.61044H18.9456C18.9456 3.73202 17.3801 2.25 15.5 2.25V3.75ZM15.5 2.25C13.6199 2.25 12.0544 3.73202 12.0544 5.61044H13.5544C13.5544 4.60545 14.4026 3.75 15.5 3.75V2.25ZM18.363 23.4293C17.9647 24.4587 16.8589 25.25 15.5 25.25V26.75C17.4305 26.75 19.1232 25.6212 19.7619 23.9707L18.363 23.4293ZM15.5 25.25C14.1411 25.25 13.0353 24.4587 12.6369 23.4293L11.238 23.9707C11.8768 25.6212 13.5695 26.75 15.5 26.75V25.25Z" fill="#0A4D68"/>
</svg>
